<mxfile host="app.diagrams.net" modified="2023-09-19T02:23:41.989Z" agent="Mozilla/5.0 (Macintosh; Intel Mac OS X 10_15_7) AppleWebKit/605.1.15 (KHTML, like Gecko) Version/16.5.1 Safari/605.1.15" version="21.7.5" etag="hM2WaLVb0FkcCx2xIWJP" type="github">
  <diagram name="Page-1" id="VnBypW5UJWrN1O7oMIeN">
    <mxGraphModel>
      <root>
        <mxCell id="0" />
        <mxCell id="1" parent="0" />
      </root>
    </mxGraphModel>
  </diagram>
</mxfile>
